<svg height="400" viewBox="0 0 600 400" width="600" xmlns="http://www.w3.org/2000/svg"><filter id="a" height="146.3%" width="154.2%" x="-27.1%" y="-23.1%"><feGaussianBlur in="SourceGraphic" stdDeviation="25"/></filter><filter id="b" height="142.9%" width="125%" x="-12.5%" y="-21.4%"><feGaussianBlur in="SourceGraphic" stdDeviation="11"/></filter><filter id="c" height="156.9%" width="132.2%" x="-16.1%" y="-28.4%"><feGaussianBlur in="SourceGraphic" stdDeviation="11"/></filter><filter id="d" height="169.5%" width="137.5%" x="-18.8%" y="-34.7%"><feGaussianBlur in="SourceGraphic" stdDeviation="11"/></filter><g fill="none" fill-rule="evenodd"><g transform="translate(63 17)"><circle cx="278.5" cy="236.5" fill="#bce5ed" opacity=".8" r="109.5"/><circle cx="127" cy="216" fill="#cdfadc" opacity=".85" r="71"/><circle cx="219" cy="112" fill="#c64a3a" opacity=".2" r="89"/><path d="M122.538 49.236l126.738 27.176 17.129 117.147 132.901 33.04-114.974 49.873 80.37 97.009-111.348-40.28-51.159-60.995z" fill="#ffd876" filter="url(#a)" opacity=".57" transform="rotate(132 260.922 211.358)"/><path d="M40 0l243 20-9 134H145l-126-9z" fill="#004c86" filter="url(#b)" opacity=".5" transform="translate(179 142)"/><path d="M199.072 148.828l255.299-3.634c7.179-.102 13.082 5.635 13.184 12.814.003.205 0 .41-.006.615l-4.113 124.219c-.238 7.176-6.248 12.8-13.423 12.562a13 13 0 01-.165-.006l-257.68-11.795c-7.172-.329-12.72-6.409-12.392-13.581a13 13 0 01.01-.18l6.494-108.79c.406-6.795 5.986-12.127 12.792-12.224z" fill="#fff" opacity=".95"/><path d="M0 29.8L205 17v116L0 120.2z" fill="#0f5e4c" filter="url(#c)" opacity=".5" transform="matrix(-1 0 0 1 205 115)"/><path d="M195.874 115H13.909c-7.18 0-13 5.82-13 13a13 13 0 00.03.878l7.166 105.894c.485 7.163 6.685 12.577 13.848 12.093l.255-.02 181.069-15.837c7.063-.618 12.328-6.781 11.836-13.854l-6.27-90.057c-.475-6.813-6.14-12.097-12.97-12.097z" fill="#fff" opacity=".95"/><path d="M0 18l176-6-7 95-153-5z" fill="#860000" filter="url(#d)" opacity=".5" transform="translate(182 51)"/><path d="M200.422 63.072L348.43 52.014c7.16-.535 13.398 4.835 13.933 11.995a13 13 0 01.03.594l2.229 77.25c.207 7.178-5.443 13.163-12.62 13.37l-.15.004-148.042 2.552c-7.104.123-12.991-5.481-13.218-12.583l-2.194-68.746c-.222-6.96 5.08-12.86 12.025-13.378z" fill="#fff" opacity=".95"/></g><g fill-rule="nonzero"><path d="M314.11 247.596l.965-18.4c.285-3.344 2.369-5.273 5.664-5.1 3.076.161 5.008 2.19 4.832 5.54l-.97 18.51 4.724.248.964-18.4c.285-3.345 2.369-5.273 5.665-5.1 3.075.16 5.007 2.19 4.831 5.54l-.97 18.51 4.724.247 1.019-19.443c.293-5.602-3.116-8.865-7.674-9.104-3.57-.187-6.643 1.69-7.903 4.708-1.032-3.414-3.851-5.324-7.312-5.506-3.075-.16-5.8 1.404-7.306 3.858l.187-3.57-4.724-.247-1.44 27.462zm50.826 3.325c8.404.44 13.964-4.776 14.43-13.673s-4.518-14.667-12.922-15.107c-8.348-.438-13.964 4.775-14.43 13.673s4.574 14.67 12.922 15.107zm.227-4.339c-5.327-.28-8.548-3.973-8.206-10.509s3.932-9.873 9.26-9.593 8.549 3.972 8.206 10.508-3.932 9.873-9.26 9.594zm31.63 6.009c4.506.18 7.726-1.358 9.807-4.278l-.216 4.12 4.723.247 2.303-43.94-4.723-.247-1.08 20.596c-1.761-3.176-4.803-5.043-9.306-5.279-7.58-.397-13.195 4.816-13.662 13.714s4.574 14.67 12.153 15.067zm.996-4.3c-5.328-.278-8.55-3.972-8.204-10.563.343-6.536 3.93-9.818 9.257-9.539s8.607 3.921 8.264 10.457c-.345 6.591-3.99 9.925-9.317 9.646zm33.221 6.093c4.724.247 7.898-1.459 9.834-4.772l-.245 4.669 4.723.247 1.443-27.517-4.724-.248-.242 4.614c-1.579-3.497-4.557-5.526-9.28-5.774-7.58-.397-13.195 4.816-13.662 13.714s4.574 14.67 12.153 15.067zm.997-4.299c-5.328-.28-8.55-3.973-8.204-10.564.343-6.536 3.93-9.818 9.257-9.538s8.607 3.92 8.264 10.457c-.345 6.59-3.99 9.924-9.317 9.645zm26.83 5.096l2.303-43.94-4.724-.247-2.303 43.94zm16.72 1.482c6.262.328 10.374-3.532 10.59-7.65.317-6.043-4.771-7.741-8.822-9.275-2.972-1.092-5.51-2.051-5.395-4.248.118-2.252 1.624-3.66 5.084-3.48 3.131.165 4.86 1.853 5.092 3.737l4.232-.88c-.625-2.786-2.907-6.54-9.278-6.874-6.481-.34-9.533 3.245-9.763 7.64-.247 4.697 3.375 6.493 7.038 7.798l.449.157c.298.104.597.204.892.304 3.188 1.159 5.952 2.02 5.808 4.766-.147 2.8-2.147 4.183-5.882 3.987-3.185-.167-5.426-1.55-5.684-5.034l-4.385.651c-.091 4.897 3.873 8.079 10.024 8.401z" fill="#092c4c" opacity=".75"/><path d="M105.932 216.196l-.18-10.318c1.392 1.816 3.53 2.819 6.53 2.766 5.599-.098 9.445-4.325 9.334-10.724s-4.104-10.49-9.703-10.393c-3 .053-5.101 1.13-6.429 2.993l-.04-2.32-4.4.077.489 27.996zm5.52-11.538c-3.52.062-5.76-2.22-5.835-6.5-.074-4.238 2.086-6.556 5.606-6.618s5.719 2.18 5.793 6.42c.074 4.28-2.045 6.637-5.564 6.698zm19.857 3.134l-.223-12.798c-.037-2.12.894-3.816 2.853-3.85 1.2-.021 1.645.25 2.378.998l2.982-3.332c-1.022-1.263-2.63-1.715-3.99-1.691-2.28.04-3.46 1.14-4.317 2.476l-.032-1.84-4.4.077.35 20.037zm19.727.176c6.359-.111 10.205-4.339 10.094-10.738s-4.104-10.49-10.463-10.379-10.206 4.339-10.094 10.738 4.104 10.49 10.463 10.379zm-.07-4c-3.52.062-5.72-2.22-5.794-6.46s2.045-6.596 5.565-6.658 5.72 2.22 5.793 6.46-2.045 6.597-5.564 6.658zm19.857 3.094l-.232-13.278c.048-1.84.863-3.295 3.182-3.336 2.16-.037 3.263 1.264 3.297 3.223l.232 13.278 4.4-.077-.233-13.278c.048-1.84.863-3.295 3.183-3.336 2.16-.037 3.262 1.264 3.296 3.223l.232 13.278 4.4-.076-.248-14.198c-.07-4.04-2.591-6.316-6.07-6.255-2.68.046-4.613 1.6-5.38 3.534-.959-2.224-2.98-3.388-5.499-3.344-2.2.038-3.898 1.308-4.87 2.885l-.04-2.24-4.399.077.35 19.997zm29.717-23.322a3.04 3.04 0 10-.106-6.079c-1.72.03-3.056 1.414-3.026 3.093s1.413 3.016 3.132 2.986zm2.598 22.758l-.35-19.997-4.399.077.35 19.997zm12.768.337c4.839-.084 7.741-3.415 7.69-6.335-.08-4.639-4.1-5.69-7.235-6.514-2.049-.525-3.737-.975-3.759-2.215-.023-1.36.72-2.293 3.08-2.334 2.24-.04 3.258 1.023 3.48 2.22l3.863-.948c-.515-2.032-2.249-5.082-7.568-4.989-5.16.09-7.185 3.206-7.128 6.485.072 4.12 3.688 4.977 6.78 5.683 2.25.56 4.179 1.007 4.207 2.607.03 1.76-1.116 2.58-3.635 2.624-2.04.035-3.652-.657-4.015-3.13l-4.027.79c.067 3.84 3.387 6.142 8.267 6.056zm21.396-.373c4.36-.076 7.527-1.972 9.071-5.2l-3.878-2.172c-.92 2.377-3.063 3.334-5.262 3.373-3.36.058-5.153-1.83-5.684-4.742l15.798-.276c.03-.52.059-1.2.05-1.72-.112-6.4-4.104-10.49-10.463-10.38s-10.206 4.339-10.094 10.738 4.103 10.49 10.462 10.379zm5.382-12.536l-11.158.195c.471-2.809 2.158-4.718 5.478-4.776 3.24-.057 5.07 1.671 5.68 4.581z" fill="#094c3a" opacity=".7"/><path d="M289.492 138.427c4.36-.076 7.526-1.971 9.07-5.199l-3.878-2.172c-.919 2.376-3.062 3.334-5.262 3.372-3.36.059-5.153-1.83-5.684-4.742l15.798-.275c.03-.52.059-1.202.05-1.721-.112-6.4-4.104-10.49-10.463-10.38s-10.206 4.34-10.094 10.738 4.104 10.49 10.463 10.38zm5.382-12.535l-11.159.194c.472-2.808 2.158-4.718 5.478-4.776 3.24-.057 5.07 1.672 5.68 4.582zm14.205 11.633l-.232-13.278c.048-1.84.863-3.295 3.182-3.336 2.16-.037 3.263 1.264 3.297 3.223l.232 13.278 4.4-.077-.232-13.277c.047-1.842.862-3.296 3.182-3.337 2.16-.037 3.262 1.264 3.297 3.223l.231 13.278 4.4-.076-.248-14.198c-.07-4.04-2.59-6.316-6.07-6.255-2.68.047-4.613 1.6-5.38 3.534-.958-2.223-2.979-3.388-5.499-3.344-2.2.038-3.897 1.308-4.87 2.885l-.04-2.24-4.398.077.349 19.997zm38.804-.117c5.599-.098 9.446-4.325 9.334-10.724s-4.104-10.49-9.703-10.393c-3 .053-5.1 1.13-6.429 2.993l-.25-14.318-4.399.077.56 32.035 4.399-.077-.041-2.36c1.391 1.817 3.53 2.82 6.529 2.767zm-.83-3.986c-3.52.061-5.76-2.22-5.834-6.5-.074-4.239 2.086-6.557 5.605-6.618s5.72 2.18 5.793 6.42c.075 4.28-2.044 6.637-5.564 6.698zm24.466 3.574c4.36-.077 7.527-1.972 9.07-5.2l-3.878-2.172c-.918 2.376-3.062 3.334-5.262 3.372-3.36.059-5.152-1.83-5.683-4.741l15.797-.276c.031-.52.06-1.201.05-1.721-.111-6.4-4.103-10.49-10.462-10.38s-10.206 4.34-10.095 10.739 4.104 10.49 10.463 10.379zm5.382-12.536l-11.158.194c.471-2.808 2.158-4.718 5.477-4.776 3.24-.056 5.07 1.672 5.681 4.582zm14.206 11.674l-.223-12.798c-.037-2.12.893-3.817 2.853-3.85 1.2-.022 1.645.25 2.378.998l2.982-3.333c-1.022-1.262-2.63-1.714-3.99-1.69-2.28.04-3.46 1.14-4.317 2.475l-.033-1.84-4.399.077.35 20.037z" fill="#cd4937" opacity=".8"/></g></g></svg>